<mxfile host="app.diagrams.net" agent="Mozilla/5.0 (Windows NT 10.0; Win64; x64) AppleWebKit/537.36 (KHTML, like Gecko) Chrome/134.0.0.0 Safari/537.36" version="26.1.0">
  <diagram name="Page-1" id="kB0DlWxN-1KlUbb1_Ff1">
    <mxGraphModel dx="1050" dy="618" grid="1" gridSize="10" guides="1" tooltips="1" connect="1" arrows="1" fold="1" page="1" pageScale="1" pageWidth="850" pageHeight="1100" math="0" shadow="0">
      <root>
        <mxCell id="0" />
        <mxCell id="1" parent="0" />
        <mxCell id="ymLdJi7pqmQS5Yl3dvWs-1" value="XM+" style="ellipse;whiteSpace=wrap;html=1;aspect=fixed;" vertex="1" parent="1">
          <mxGeometry x="360" y="170" width="80" height="80" as="geometry" />
        </mxCell>
        <mxCell id="ymLdJi7pqmQS5Yl3dvWs-3" value="YM-" style="ellipse;whiteSpace=wrap;html=1;aspect=fixed;" vertex="1" parent="1">
          <mxGeometry x="360" y="490" width="80" height="80" as="geometry" />
        </mxCell>
        <mxCell id="ymLdJi7pqmQS5Yl3dvWs-4" value="&lt;strike&gt;XM-&lt;/strike&gt;" style="ellipse;whiteSpace=wrap;html=1;aspect=fixed;" vertex="1" parent="1">
          <mxGeometry x="600" y="270" width="80" height="80" as="geometry" />
        </mxCell>
        <mxCell id="ymLdJi7pqmQS5Yl3dvWs-5" value="Y&lt;span style=&quot;background-color: transparent; color: light-dark(rgb(0, 0, 0), rgb(255, 255, 255));&quot;&gt;M+&lt;/span&gt;" style="ellipse;whiteSpace=wrap;html=1;aspect=fixed;" vertex="1" parent="1">
          <mxGeometry x="360" y="378.75" width="80" height="80" as="geometry" />
        </mxCell>
        <mxCell id="ymLdJi7pqmQS5Yl3dvWs-6" value="ON&lt;div&gt;(LED GREEN)&lt;/div&gt;" style="ellipse;whiteSpace=wrap;html=1;aspect=fixed;" vertex="1" parent="1">
          <mxGeometry x="200" y="298.75" width="80" height="80" as="geometry" />
        </mxCell>
        <mxCell id="ymLdJi7pqmQS5Yl3dvWs-7" value="OFF&lt;div&gt;(LED RED)&lt;/div&gt;" style="ellipse;whiteSpace=wrap;html=1;aspect=fixed;" vertex="1" parent="1">
          <mxGeometry x="30" y="298.75" width="80" height="80" as="geometry" />
        </mxCell>
        <mxCell id="ymLdJi7pqmQS5Yl3dvWs-11" value="LIMITHIT&lt;div&gt;(LED YELLOW)&lt;/div&gt;" style="ellipse;whiteSpace=wrap;html=1;aspect=fixed;" vertex="1" parent="1">
          <mxGeometry x="60" y="540" width="100" height="100" as="geometry" />
        </mxCell>
        <mxCell id="ymLdJi7pqmQS5Yl3dvWs-13" value="&lt;strike&gt;XM+&lt;/strike&gt;" style="ellipse;whiteSpace=wrap;html=1;aspect=fixed;" vertex="1" parent="1">
          <mxGeometry x="600" y="170" width="80" height="80" as="geometry" />
        </mxCell>
        <mxCell id="ymLdJi7pqmQS5Yl3dvWs-14" value="XM-" style="ellipse;whiteSpace=wrap;html=1;aspect=fixed;" vertex="1" parent="1">
          <mxGeometry x="360" y="270" width="80" height="80" as="geometry" />
        </mxCell>
        <mxCell id="ymLdJi7pqmQS5Yl3dvWs-15" value="&lt;strike&gt;Y&lt;span style=&quot;background-color: transparent; color: light-dark(rgb(0, 0, 0), rgb(255, 255, 255));&quot;&gt;M+&lt;/span&gt;&lt;/strike&gt;" style="ellipse;whiteSpace=wrap;html=1;aspect=fixed;" vertex="1" parent="1">
          <mxGeometry x="600" y="370" width="80" height="80" as="geometry" />
        </mxCell>
        <mxCell id="ymLdJi7pqmQS5Yl3dvWs-16" value="&lt;strike&gt;YM-&lt;/strike&gt;" style="ellipse;whiteSpace=wrap;html=1;aspect=fixed;" vertex="1" parent="1">
          <mxGeometry x="600" y="490" width="80" height="80" as="geometry" />
        </mxCell>
        <mxCell id="ymLdJi7pqmQS5Yl3dvWs-27" value="" style="shape=flexArrow;endArrow=classic;html=1;rounded=0;exitX=1;exitY=1;exitDx=0;exitDy=0;entryX=0;entryY=1;entryDx=0;entryDy=0;" edge="1" parent="1" source="ymLdJi7pqmQS5Yl3dvWs-7" target="ymLdJi7pqmQS5Yl3dvWs-6">
          <mxGeometry width="50" height="50" relative="1" as="geometry">
            <mxPoint x="540" y="448.75" as="sourcePoint" />
            <mxPoint x="190" y="430" as="targetPoint" />
          </mxGeometry>
        </mxCell>
        <mxCell id="ymLdJi7pqmQS5Yl3dvWs-30" value="IR1" style="edgeLabel;html=1;align=center;verticalAlign=middle;resizable=0;points=[];" vertex="1" connectable="0" parent="ymLdJi7pqmQS5Yl3dvWs-27">
          <mxGeometry x="-0.1855" relative="1" as="geometry">
            <mxPoint y="-9" as="offset" />
          </mxGeometry>
        </mxCell>
        <mxCell id="ymLdJi7pqmQS5Yl3dvWs-37" value="" style="html=1;shadow=0;dashed=0;align=center;verticalAlign=middle;shape=mxgraph.arrows2.uTurnArrow;dy=11;arrowHead=43;dx2=25;rotation=-90;" vertex="1" parent="1">
          <mxGeometry x="213.29" y="370" width="53.43" height="80" as="geometry" />
        </mxCell>
        <mxCell id="ymLdJi7pqmQS5Yl3dvWs-39" value="IR1" style="text;html=1;align=center;verticalAlign=middle;resizable=0;points=[];autosize=1;strokeColor=none;fillColor=default;rounded=0;glass=0;" vertex="1" parent="1">
          <mxGeometry x="226.72" y="418.75" width="40" height="30" as="geometry" />
        </mxCell>
        <mxCell id="ymLdJi7pqmQS5Yl3dvWs-40" value="" style="shape=flexArrow;endArrow=classic;html=1;rounded=0;exitX=0;exitY=0;exitDx=0;exitDy=0;entryX=1;entryY=0;entryDx=0;entryDy=0;" edge="1" parent="1" source="ymLdJi7pqmQS5Yl3dvWs-6" target="ymLdJi7pqmQS5Yl3dvWs-7">
          <mxGeometry width="50" height="50" relative="1" as="geometry">
            <mxPoint x="200" y="330" as="sourcePoint" />
            <mxPoint x="110" y="330" as="targetPoint" />
          </mxGeometry>
        </mxCell>
        <mxCell id="ymLdJi7pqmQS5Yl3dvWs-41" value="IR0" style="edgeLabel;html=1;align=center;verticalAlign=middle;resizable=0;points=[];" vertex="1" connectable="0" parent="ymLdJi7pqmQS5Yl3dvWs-40">
          <mxGeometry x="-0.1855" relative="1" as="geometry">
            <mxPoint y="-9" as="offset" />
          </mxGeometry>
        </mxCell>
        <mxCell id="ymLdJi7pqmQS5Yl3dvWs-43" value="" style="html=1;shadow=0;dashed=0;align=center;verticalAlign=middle;shape=mxgraph.arrows2.uTurnArrow;dy=11;arrowHead=43;dx2=25;rotation=-90;" vertex="1" parent="1">
          <mxGeometry x="43.28999999999999" y="370" width="53.43" height="80" as="geometry" />
        </mxCell>
        <mxCell id="ymLdJi7pqmQS5Yl3dvWs-45" value="IR0" style="text;html=1;align=center;verticalAlign=middle;resizable=0;points=[];autosize=1;strokeColor=none;fillColor=default;rounded=0;glass=0;" vertex="1" parent="1">
          <mxGeometry x="56.72" y="418.75" width="40" height="30" as="geometry" />
        </mxCell>
        <mxCell id="ymLdJi7pqmQS5Yl3dvWs-46" value="" style="shape=singleArrow;whiteSpace=wrap;html=1;arrowWidth=0.4;arrowSize=0.4;" vertex="1" parent="1">
          <mxGeometry x="260" y="200" width="70" height="60" as="geometry" />
        </mxCell>
      </root>
    </mxGraphModel>
  </diagram>
</mxfile>
